# Blender 4.2.2 LTS
# www.blender.org
mtllib onlyfaceobj2.mtl
o LowPoly_Head.002
v 0.050806 -0.075679 0.575168
v 0.043989 -0.103016 0.572057
v 0.126183 -0.111771 0.526502
v -0.136029 -0.111771 0.526502
v -0.053834 -0.103016 0.572057
v -0.060652 -0.075679 0.575168
v -0.004923 -0.079137 0.582284
v -0.004923 -0.113836 0.574541
v -0.069030 -0.161561 0.548722
v -0.054035 -0.132444 0.574308
v 0.044189 -0.132444 0.574308
v 0.059185 -0.161561 0.548722
v -0.004923 -0.170065 0.561102
v -0.004923 -0.138437 0.581028
v 0.237077 0.284338 0.512441
v 0.263268 0.320541 0.513727
v -0.273113 0.320541 0.513727
v -0.246922 0.284338 0.512441
v 0.136180 0.317013 0.561438
v 0.139075 0.285043 0.531289
v -0.148920 0.285043 0.531289
v -0.146026 0.317013 0.561438
v 0.084482 0.249456 0.553191
v 0.107843 0.250466 0.513030
v -0.117689 0.250466 0.513030
v -0.094328 0.249456 0.553191
v 0.256615 0.258548 0.458527
v 0.287759 0.259650 0.451685
v -0.297605 0.259650 0.451685
v -0.266461 0.258548 0.458527
v 0.226926 0.227901 0.515432
v 0.247066 0.196696 0.503631
v -0.256911 0.196696 0.503631
v -0.236771 0.227901 0.515432
v 0.145722 0.226540 0.540496
v 0.137762 0.192389 0.546516
v -0.147607 0.192389 0.546516
v -0.155568 0.226540 0.540496
v 0.084739 0.163255 0.591011
v -0.094585 0.163255 0.591011
v 0.272102 0.057880 0.466118
v -0.281948 0.057880 0.466118
v 0.276895 -0.086590 0.369100
v -0.286740 -0.086590 0.369100
v 0.197061 -0.238670 0.403299
v -0.206907 -0.238670 0.403299
v 0.101522 -0.305137 0.473786
v -0.111368 -0.305137 0.473786
v -0.004923 -0.331350 0.494639
v 0.057007 0.015777 0.590522
v -0.066852 0.015777 0.590522
v -0.004923 0.000453 0.614870
v 0.285859 0.355666 0.496702
v -0.295705 0.355666 0.496702
v 0.111178 0.353393 0.609620
v -0.121024 0.353393 0.609620
v 0.050011 0.254350 0.602968
v -0.059857 0.254350 0.602968
v -0.004923 0.356044 0.621892
v -0.004923 0.254568 0.627960
v -0.004923 0.176642 0.661751
v 0.021325 0.027097 0.648801
v -0.031171 0.027097 0.648801
v 0.030368 0.054080 0.689065
v -0.004923 0.053485 0.704468
v -0.040214 0.054080 0.689065
v 0.072473 0.057676 0.642400
v 0.095418 0.074437 0.605251
v -0.105264 0.074437 0.605251
v -0.082318 0.057676 0.642400
v -0.004923 0.101119 0.698354
v 0.040387 0.029483 0.615029
v -0.050233 0.029483 0.615029
v 0.340404 0.269080 0.352639
v -0.350250 0.269080 0.352639
v 0.331980 0.099492 0.362270
v -0.341825 0.099492 0.362270
v 0.166872 -0.007507 0.539356
v -0.176717 -0.007507 0.539356
v 0.206051 -0.091150 0.472379
v 0.167914 -0.177122 0.475526
v 0.087989 -0.228258 0.522830
v -0.004923 -0.258665 0.549334
v -0.097835 -0.228258 0.522830
v -0.177760 -0.177122 0.475526
v -0.215897 -0.091150 0.472379
v 0.285910 0.157067 0.471226
v -0.295755 0.157067 0.471226
v 0.305198 0.591395 0.298781
v -0.315044 0.591395 0.298781
v 0.162159 0.722288 0.380237
v -0.172005 0.722288 0.380237
v -0.004923 0.753503 0.415522
v 0.213598 0.268229 0.474669
v -0.221989 0.266199 0.475310
v 0.149929 0.266625 0.497158
v -0.159775 0.266625 0.497158
v 0.138505 0.252609 0.502287
v -0.148351 0.252609 0.502287
v 0.222321 0.257501 0.469747
v -0.232167 0.257501 0.469747
v 0.217238 0.247712 0.487587
v -0.227084 0.247712 0.487587
v 0.152499 0.246652 0.505958
v -0.160619 0.244342 0.507818
v -0.162345 0.246652 0.505958
v -0.223443 0.268229 0.474669
v -0.047492 0.062504 0.656005
v -0.032075 0.044022 0.640679
v 0.022229 0.044022 0.640679
v 0.037646 0.062504 0.656005
v 0.055246 0.057703 0.640123
v -0.065092 0.057703 0.640123
v 0.033166 0.054482 0.619609
v -0.043012 0.054482 0.619609
v -0.105264 0.074437 0.605251
vn 0.4563 -0.2122 0.8641
vn -0.4563 -0.2122 0.8641
vn 0.1219 -0.1692 0.9780
vn 0.1092 -0.1940 0.9749
vn 0.0973 -0.2168 0.9714
vn -0.1219 -0.1692 0.9780
vn -0.1092 -0.1940 0.9749
vn -0.1342 -0.1450 0.9803
vn -0.5354 -0.3849 0.7518
vn 0.5354 -0.3849 0.7518
vn -0.2118 -0.5581 0.8023
vn -0.1991 -0.5456 0.8140
vn -0.1779 -0.5245 0.8326
vn 0.2118 -0.5581 0.8023
vn 0.1991 -0.5456 0.8140
vn 0.2280 -0.5738 0.7866
vn -0.0536 0.1289 0.9902
vn -0.0794 0.1974 0.9771
vn -0.0337 0.0765 0.9965
vn 0.0536 0.1289 0.9902
vn 0.0794 0.1974 0.9771
vn 0.1007 0.2537 0.9620
vn -0.4893 0.0698 0.8693
vn 0.4893 0.0698 0.8693
vn 0.3136 -0.3534 0.8814
vn 0.1903 -0.5895 0.7851
vn 0.1350 -0.6733 0.7269
vn -0.3136 -0.3534 0.8814
vn -0.1903 -0.5895 0.7851
vn -0.3441 -0.2808 0.8959
vn 0.6015 -0.5936 0.5347
vn 0.6073 -0.6537 0.4516
vn 0.6051 -0.7228 0.3338
vn -0.6015 -0.5936 0.5347
vn -0.6073 -0.6537 0.4516
vn -0.5889 -0.5256 0.6139
vn 0.5189 -0.5484 0.6557
vn 0.3393 -0.7382 0.5830
vn 0.5878 -0.4492 0.6729
vn -0.5189 -0.5484 0.6557
vn -0.3393 -0.7382 0.5830
vn -0.1334 -0.8743 0.4666
vn 0.3089 0.5288 0.7905
vn 0.6661 0.3696 0.6479
vn 0.1578 0.5658 0.8093
vn -0.3089 0.5288 0.7905
vn -0.6661 0.3696 0.6479
vn -0.7761 0.2889 0.5605
vn 0.3562 -0.0793 0.9311
vn 0.3127 0.0454 0.9488
vn 0.3668 -0.1125 0.9235
vn -0.3562 -0.0793 0.9311
vn -0.3127 0.0454 0.9488
vn -0.2919 0.0996 0.9512
vn 0.3890 0.7241 0.5696
vn 0.3305 0.4130 0.8487
vn 0.3840 0.8900 0.2457
vn -0.3890 0.7241 0.5696
vn -0.3305 0.4130 0.8487
vn -0.2422 0.1134 0.9636
vn -0.4870 0.2771 0.8283
vn -0.4131 -0.1730 0.8941
vn -0.4892 0.3378 0.8041
vn 0.7324 -0.2989 0.6117
vn 0.7261 -0.2957 0.6207
vn 0.6554 -0.2607 0.7089
vn 0.7822 -0.3027 0.5446
vn 0.7782 -0.3046 0.5492
vn 0.7935 -0.2971 0.5312
vn 0.6661 -0.3544 0.6563
vn 0.6776 -0.3602 0.6412
vn 0.6296 -0.3360 0.7005
vn 0.3388 -0.5097 0.7908
vn 0.3304 -0.5218 0.7865
vn 0.2914 -0.5752 0.7644
vn -0.3388 -0.5097 0.7908
vn -0.3304 -0.5218 0.7865
vn -0.3780 -0.4497 0.8092
vn -0.6661 -0.3544 0.6563
vn -0.6776 -0.3602 0.6412
vn -0.7048 -0.3737 0.6029
vn -0.7822 -0.3027 0.5446
vn -0.7782 -0.3046 0.5492
vn -0.7565 -0.3146 0.5734
vn 0.6367 -0.4709 0.6106
vn 0.6451 -0.5102 0.5688
vn 0.6532 -0.5618 0.5076
vn -0.6367 -0.4709 0.6106
vn -0.6451 -0.5102 0.5688
vn -0.6263 -0.4304 0.6500
vn 0.6930 0.2914 0.6594
vn 0.6282 0.3142 0.7118
vn 0.4795 0.3538 0.8031
vn -0.6930 0.2914 0.6594
vn -0.6282 0.3142 0.7118
vn -0.8093 0.2380 0.5370
vn 0.2624 -0.0377 0.9642
vn 0.2113 -0.0673 0.9751
vn 0.4137 0.0544 0.9088
vn -0.2624 -0.0377 0.9642
vn -0.2113 -0.0673 0.9751
vn -0.1013 -0.1288 0.9865
vn 0.5321 0.2384 0.8124
vn 0.5412 0.2294 0.8090
vn 0.6261 0.1379 0.7675
vn -0.5412 0.2294 0.8090
vn -0.5321 0.2384 0.8124
vn -0.6261 0.1379 0.7675
vn 0.2155 -0.8391 0.4994
vn 0.2262 -0.8346 0.5023
vn 0.2103 -0.8413 0.4980
vn -0.2155 -0.8391 0.4994
vn -0.2262 -0.8346 0.5023
vn -0.2342 -0.8311 0.5044
vn 0.6690 0.2462 0.7013
vn 0.6500 0.2816 0.7059
vn 0.6945 0.1946 0.6927
vn -0.6690 0.2462 0.7013
vn -0.6500 0.2816 0.7059
vn -0.6126 0.3447 0.7112
vn -0.7261 -0.2957 0.6207
vn -0.7324 -0.2989 0.6117
vn -0.6554 -0.2607 0.7089
vn 0.4666 -0.7309 0.4980
vn 0.4922 -0.7704 0.4053
vn 0.4123 -0.6470 0.6414
vn -0.4666 -0.7309 0.4980
vn -0.4922 -0.7704 0.4053
vn -0.5234 -0.8183 0.2376
vn 0.4131 -0.1730 0.8941
vn 0.4870 0.2771 0.8283
vn 0.4892 0.3378 0.8041
vn 0.8289 -0.2239 0.5127
vn 0.8608 -0.2020 0.4672
vn 0.8741 -0.1919 0.4463
vn -0.8289 -0.2239 0.5127
vn -0.8608 -0.2020 0.4672
vn -0.7963 -0.2438 0.5536
vn 0.8791 -0.2452 0.4086
vn 0.6658 -0.6649 0.3385
vn 0.5077 -0.7379 0.4446
vn 0.7874 -0.5728 0.2279
vn -0.6658 -0.6649 0.3385
vn -0.5077 -0.7379 0.4446
vn -0.2011 -0.7905 0.5785
vn 0.2732 -0.1847 0.9441
vn 0.2733 -0.1846 0.9441
vn 0.2170 -0.2704 0.9380
vn -0.2733 -0.1846 0.9441
vn -0.2732 -0.1847 0.9441
vn -0.2170 -0.2704 0.9380
vn 0.8389 0.0872 0.5372
vn 0.7813 0.1032 0.6156
vn 0.8776 0.0744 0.4735
vn -0.8389 0.0872 0.5372
vn -0.7813 0.1032 0.6156
vn -0.7055 0.1203 0.6985
vn 0.9164 -0.0228 0.3996
vn 0.1405 0.4648 0.8742
vn 0.2392 0.4791 0.8446
vn 0.1038 0.4583 0.8827
vn -0.2392 0.4791 0.8446
vn -0.1405 0.4648 0.8742
vn -0.1038 0.4583 0.8827
vn 0.1203 -0.9180 0.3779
vn 0.1010 -0.8865 0.4515
vn 0.1354 -0.9390 0.3163
vn -0.0978 -0.8808 0.4633
vn -0.1114 -0.9041 0.4125
vn -0.1228 -0.9218 0.3678
vn 0.4930 -0.5847 0.6442
vn 0.5253 -0.5723 0.6297
vn 0.7579 -0.4422 0.4796
vn -0.4930 -0.5847 0.6442
vn -0.5253 -0.5723 0.6297
vn -0.2935 -0.6401 0.7100
vn 0.0345 -0.8138 0.5801
vn 0.0666 -0.7673 0.6378
vn 0.3109 -0.1757 0.9340
vn -0.0680 -0.8274 0.5575
vn -0.0943 -0.7875 0.6090
vn -0.0089 -0.9008 0.4341
vn 0.1541 0.8391 0.5217
vn 0.1586 0.8354 0.5263
vn 0.1650 0.8299 0.5330
vn -0.1541 0.8391 0.5217
vn -0.1586 0.8354 0.5263
vn -0.1398 0.8507 0.5067
vn -0.1280 0.8383 0.5299
vn -0.1339 0.8535 0.5036
vn -0.1243 0.8284 0.5462
vn 0.1446 0.8391 0.5244
vn 0.1420 0.8334 0.5342
vn 0.1400 0.8291 0.5412
vn 0.1564 0.8255 0.5423
vn 0.1570 0.8213 0.5484
vn 0.1638 0.7670 0.6204
vn -0.1828 0.8193 0.5434
vn -0.1830 0.8142 0.5510
vn -0.1812 0.8516 0.4919
vn 0.2621 0.5221 0.8116
vn 0.2477 0.4464 0.8598
vn 0.2418 0.4171 0.8761
vn -0.2670 0.5493 0.7918
vn -0.2500 0.4581 0.8530
vn -0.2727 0.5833 0.7651
vn -0.0725 0.3943 0.9161
vn 0.1183 0.4249 0.8975
vn 0.7812 0.4259 0.4563
vn -0.7061 0.5164 0.4845
vn -0.9044 -0.3757 -0.2022
vn -0.9109 -0.4091 -0.0531
vn -0.8245 -0.2800 -0.4917
vn 0.9044 -0.3757 -0.2022
vn 0.9109 -0.4091 -0.0531
vn 0.8978 -0.4317 0.0877
vn -0.1424 -0.9897 -0.0133
vn -0.2155 -0.9528 -0.2136
vn -0.0350 -0.9667 0.2535
vn 0.1424 -0.9897 -0.0133
vn 0.2155 -0.9528 -0.2136
vn 0.2414 -0.9263 -0.2892
vn 0.8467 0.1655 0.5056
vn 0.8478 0.1764 0.5001
vn 0.8490 0.1911 0.4927
vn -0.8467 0.1655 0.5056
vn -0.8478 0.1764 0.5001
vn -0.8451 0.1501 0.5132
vn -0.5006 -0.4130 0.7608
vn -0.2461 -0.5685 0.7850
vn -0.6221 -0.3113 0.7184
vn 0.5006 -0.4130 0.7608
vn 0.2461 -0.5685 0.7850
vn 0.1027 -0.6303 0.7696
vn -0.3819 -0.9170 0.1156
vn -0.3769 -0.9010 0.2149
vn -0.3666 -0.8950 -0.2540
vn 0.3819 -0.9170 0.1156
vn 0.3769 -0.9010 0.2149
vn 0.3199 -0.7485 0.5808
vn 0.4482 -0.5304 0.7196
vn 0.3986 -0.0077 0.9171
vn 0.4441 -0.5890 0.6752
vn -0.4482 -0.5304 0.7196
vn -0.3986 -0.0077 0.9171
vn -0.3368 0.2264 0.9140
vn 0.5537 0.4160 0.7214
vn 0.6345 0.4202 0.6487
vn 0.4914 0.4099 0.7684
vn -0.5537 0.4160 0.7214
vn -0.6345 0.4202 0.6487
vn -0.7076 0.4194 0.5687
vn 0.3956 0.1169 0.9109
vn -0.3956 0.1169 0.9109
vn 0.6743 0.4129 0.6122
vn 0.6733 0.3923 0.6267
vn 0.6724 0.3789 0.6359
vn -0.6743 0.4129 0.6122
vn -0.6733 0.3923 0.6267
vn -0.6746 0.4207 0.6065
vn 0.9511 0.1491 0.2705
vn -0.6078 0.0527 0.7923
vn -0.6713 0.1007 0.7344
vn -0.5625 0.0205 0.8265
vn 0.6078 0.0527 0.7923
vn 0.6713 0.1007 0.7344
vn 0.7744 0.1899 0.6036
vn 0.6932 -0.1330 0.7083
vn 0.7211 -0.1354 0.6795
vn 0.8812 -0.1458 0.4497
vn -0.6932 -0.1330 0.7083
vn -0.7211 -0.1354 0.6795
vn -0.5057 -0.1144 0.8551
vn -0.5284 -0.1993 0.8252
vn -0.5142 -0.1949 0.8353
vn -0.4191 -0.1656 0.8927
vn 0.5285 -0.1993 0.8252
vn 0.5142 -0.1949 0.8353
vn 0.5973 -0.2202 0.7712
vn 0.4046 -0.2229 0.8869
vn 0.4065 -0.2273 0.8849
vn 0.3841 -0.1781 0.9059
vn -0.4046 -0.2229 0.8869
vn -0.4065 -0.2273 0.8849
vn -0.4263 -0.2727 0.8625
vn 0.3095 -0.4172 0.8545
vn -0.3094 -0.4172 0.8545
vn -0.1735 -0.3441 0.9228
vn -0.3095 -0.4172 0.8545
vn 0.3118 -0.2498 0.9167
vn 0.2505 -0.2972 0.9214
vn 0.3979 -0.1781 0.9000
vn -0.3118 -0.2498 0.9167
vn -0.2505 -0.2972 0.9214
vn -0.1403 -0.3751 0.9163
vn 0.5870 -0.2786 0.7601
vn 0.5867 -0.3206 0.7436
vn -0.5870 -0.2786 0.7601
vn -0.5860 -0.2315 0.7765
vn 0.1342 -0.1450 0.9803
vn -0.0973 -0.2168 0.9714
vn -0.2280 -0.5738 0.7866
vn 0.1779 -0.5245 0.8326
vn -0.1007 0.2537 0.9620
vn 0.0337 0.0765 0.9965
vn 0.3441 -0.2808 0.8959
vn -0.1350 -0.6733 0.7269
vn 0.5889 -0.5256 0.6139
vn -0.6051 -0.7228 0.3338
vn 0.1334 -0.8743 0.4666
vn -0.5878 -0.4492 0.6729
vn 0.7761 0.2889 0.5605
vn -0.1578 0.5658 0.8093
vn 0.2919 0.0996 0.9512
vn -0.3668 -0.1125 0.9235
vn 0.2422 0.1134 0.9636
vn -0.3840 0.8900 0.2457
vn -0.3530 -0.3601 0.8635
vn 0.7861 -0.3264 0.5248
vn 0.7565 -0.3146 0.5734
vn 0.7048 -0.3737 0.6029
vn 0.3780 -0.4497 0.8092
vn -0.2914 -0.5752 0.7644
vn -0.6296 -0.3360 0.7005
vn -0.7935 -0.2971 0.5312
vn 0.6263 -0.4304 0.6500
vn -0.6532 -0.5618 0.5076
vn 0.8093 0.2380 0.5370
vn -0.4795 0.3538 0.8031
vn 0.1013 -0.1288 0.9865
vn -0.4137 0.0544 0.9088
vn 0.3864 0.3669 0.8462
vn -0.3864 0.3669 0.8462
vn 0.2342 -0.8311 0.5044
vn -0.2103 -0.8413 0.4980
vn 0.6126 0.3447 0.7112
vn -0.6945 0.1946 0.6927
vn -0.7861 -0.3264 0.5248
vn 0.5234 -0.8183 0.2376
vn -0.4123 -0.6470 0.6414
vn 0.3530 -0.3601 0.8635
vn 0.7963 -0.2438 0.5536
vn -0.8741 -0.1919 0.4463
vn -0.8791 -0.2452 0.4086
vn 0.2011 -0.7905 0.5785
vn -0.7874 -0.5728 0.2279
vn 0.3098 -0.1252 0.9425
vn -0.3098 -0.1252 0.9425
vn 0.7055 0.1203 0.6985
vn -0.8776 0.0744 0.4736
vn -0.9164 -0.0228 0.3996
vn 0.2663 0.4822 0.8346
vn -0.2663 0.4822 0.8346
vn 0.0889 -0.8645 0.4948
vn -0.0889 -0.8645 0.4948
vn 0.2935 -0.6401 0.7100
vn -0.7579 -0.4422 0.4796
vn -0.0479 -0.9077 0.4169
vn -0.3090 -0.2289 0.9231
vn 0.1398 0.8507 0.5067
vn -0.1650 0.8299 0.5330
vn -0.1369 0.8608 0.4901
vn 0.1461 0.8422 0.5191
vn 0.1541 0.8404 0.5196
vn -0.1839 0.7204 0.6687
vn 0.2665 0.5470 0.7936
vn -0.2436 0.4261 0.8713
vn 0.0487 -0.6043 -0.7953
vn -0.4514 -0.0419 0.8913
vn -0.8978 -0.4317 0.0877
vn 0.8245 -0.2800 -0.4917
vn -0.2414 -0.9263 -0.2892
vn 0.0350 -0.9667 0.2535
vn 0.8451 0.1501 0.5132
vn -0.8490 0.1911 0.4927
vn -0.1027 -0.6303 0.7696
vn 0.6221 -0.3113 0.7184
vn -0.3199 -0.7485 0.5808
vn 0.3666 -0.8950 -0.2541
vn 0.3368 0.2264 0.9140
vn -0.4441 -0.5890 0.6752
vn 0.7076 0.4194 0.5687
vn -0.4914 0.4099 0.7684
vn 0.6746 0.4207 0.6065
vn -0.6724 0.3789 0.6359
vn -0.9511 0.1491 0.2705
vn -0.7744 0.1899 0.6036
vn 0.5625 0.0205 0.8265
vn 0.5057 -0.1144 0.8551
vn -0.8812 -0.1458 0.4497
vn -0.5973 -0.2202 0.7712
vn 0.4191 -0.1656 0.8927
vn 0.4263 -0.2727 0.8625
vn -0.3841 -0.1781 0.9059
vn -0.0000 -0.2411 0.9705
vn 0.1403 -0.3751 0.9163
vn -0.3979 -0.1781 0.9000
vn 0.5860 -0.2315 0.7765
vn -0.5867 -0.3206 0.7436
vt 0.867322 0.106398
vt 0.865177 0.096404
vt 0.899945 0.092008
vt 0.827000 0.105454
vt 0.793664 0.089101
vt 0.829558 0.095475
vt 0.847169 0.105289
vt 0.847480 0.092635
vt 0.830479 0.084826
vt 0.822889 0.071508
vt 0.864780 0.085843
vt 0.872960 0.073220
vt 0.848143 0.069711
vt 0.847731 0.083577
vt 0.924978 0.244251
vt 0.890983 0.246467
vt 0.898202 0.235484
vt 0.754690 0.237162
vt 0.788261 0.241972
vt 0.749617 0.248186
vt 0.883443 0.220598
vt 0.896484 0.223280
vt 0.781920 0.230482
vt 0.797810 0.216654
vt 0.952053 0.234051
vt 0.929274 0.255714
vt 0.728816 0.225364
vt 0.741198 0.223056
vt 0.939633 0.230860
vt 0.935214 0.205682
vt 0.747143 0.198586
vt 0.755471 0.206941
vt 0.926279 0.213646
vt 0.899307 0.200987
vt 0.783157 0.195733
vt 0.779711 0.206292
vt 0.902055 0.211596
vt 0.730444 0.186028
vt 0.806386 0.185275
vt 0.937351 0.099640
vt 0.954571 0.158142
vt 0.910328 0.132959
vt 0.951681 0.034997
vt 0.987318 0.098877
vt 0.898609 0.010453
vt 0.923856 0.064824
vt 0.886188 0.047016
vt 0.849319 0.036232
vt 0.850909 -0.000000
vt 0.801824 0.005878
vt 0.811300 0.044018
vt 0.771048 0.059174
vt 0.745092 0.026174
vt 0.753931 0.094067
vt 0.862499 0.220657
vt 0.818791 0.218468
vt 0.803139 0.254360
vt 0.877350 0.189686
vt 0.839150 0.253329
vt 0.840769 0.217570
vt 0.842191 0.188743
vt 0.851147 0.148969
vt 0.844271 0.158969
vt 0.846420 0.135246
vt 0.839345 0.148005
vt 0.838380 0.157706
vt 0.843462 0.168425
vt 0.876734 0.161431
vt 0.731545 0.151690
vt 0.777521 0.132034
vt 0.860670 0.144631
vt 0.868856 0.138899
vt 0.831245 0.142163
vt 0.953095 0.193707
vt 0.935410 0.267512
vt 0.995430 0.244828
vt 0.742695 0.259354
vt 1.000000 0.176028
vt 0.863045 0.157934
vt 0.825430 0.154504
vt 0.825509 0.135850
vt 0.875084 0.257647
vt 0.832811 0.403802
vt 0.906690 0.228163
vt 0.924823 0.231097
vt 0.774004 0.222592
vt 0.756130 0.223846
vt 0.903378 0.224656
vt 0.777543 0.219340
vt 0.784513 0.218413
vt 0.928404 0.228744
vt 0.925580 0.223519
vt 0.755529 0.216776
vt 0.752421 0.221763
vt 0.774785 0.216139
vt 0.906878 0.222371
vt 0.834134 0.153488
vt 0.835459 0.148997
vt 0.855199 0.155370
vt 0.850288 0.158724
vt 0.859840 0.154939
vt 0.854809 0.150747
vt 0.832435 0.148082
vt 0.857982 0.150508
vt 0.829510 0.152091
vt 0.897643 0.400542
vt 0.768715 0.394598
vt 0.701034 0.354576
vt 0.806565 0.154176
vt 0.969095 0.366544
vt 0.806553 0.154144
vt 0.703262 0.089252
vt 0.685680 0.232853
vt 0.685680 0.165721
vt 0.686866 0.461372
vt 0.685680 0.461451
vt 0.685680 0.456030
vt 0.686562 0.466396
vt 0.685680 0.466536
vt 0.685680 0.461451
s 1
usemtl standardSurface1
f 1/1/1 2/2/1 3/3/1
f 6/4/2 4/5/2 5/6/2
f 2/2/3 7/7/4 8/8/5
f 5/6/6 7/7/7 6/4/8
f 10/9/9 4/5/9 9/10/9
f 3/3/10 11/11/10 12/12/10
f 10/9/11 13/13/12 14/14/13
f 11/11/14 13/13/15 12/12/16
f 10/9/17 8/8/18 5/6/19
f 11/11/20 8/8/21 14/14/22
f 10/9/23 5/6/23 4/5/23
f 2/2/24 11/11/24 3/3/24
f 15/15/25 19/16/26 20/17/27
f 18/18/28 22/19/29 17/20/30
f 20/17/31 23/21/32 24/22/33
f 21/23/34 26/24/35 22/19/36
f 15/15/37 28/25/38 16/26/39
f 18/18/40 29/27/41 30/28/42
f 27/29/43 32/30/44 28/25/45
f 30/28/46 33/31/47 34/32/48
f 31/33/49 36/34/50 32/30/51
f 34/32/52 37/35/53 38/36/54
f 23/21/55 35/37/56 24/22/57
f 26/24/58 38/36/59 37/35/60
f 37/35/61 88/38/62 40/39/63
f 80/40/64 41/41/65 78/42/66
f 80/40/67 45/43/68 43/44/69
f 47/45/70 81/46/71 82/47/72
f 47/45/73 83/48/74 49/49/75
f 48/50/76 83/48/77 84/51/78
f 48/50/79 85/52/80 46/53/81
f 86/54/82 46/53/83 85/52/84
f 19/16/85 57/55/86 23/21/87
f 22/19/88 58/56/89 56/57/90
f 23/21/91 39/58/92 36/34/93
f 26/24/94 40/39/95 58/56/96
f 57/55/97 59/59/98 60/60/99
f 58/56/100 59/59/101 56/57/102
f 57/55/103 61/61/104 39/58/105
f 61/61/106 58/56/107 40/39/108
f 62/62/109 65/63/110 52/64/111
f 63/65/112 65/63/113 66/66/114
f 39/58/115 71/67/116 68/68/117
f 40/39/118 71/67/119 61/61/120
f 42/69/121 86/54/122 79/70/123
f 72/71/124 52/64/125 50/72/126
f 73/73/127 52/64/128 63/65/129
f 87/74/130 36/34/131 39/58/132
f 53/75/133 28/25/134 74/76/135
f 54/77/136 29/27/137 17/20/138
f 43/44/139 76/78/139 41/41/139
f 67/79/140 50/72/141 68/68/142
f 70/80/143 51/81/144 73/73/145
f 13/13/146 82/47/147 12/12/148
f 84/51/149 13/13/150 9/10/151
f 28/25/152 87/74/153 74/76/154
f 29/27/155 88/38/156 33/31/157
f 76/78/158 74/76/158 87/74/158
f 55/82/159 93/83/160 59/59/161
f 93/83/162 56/57/163 59/59/164
f 15/15/165 96/84/166 94/85/167
f 97/86/168 18/18/169 95/87/170
f 20/17/171 98/88/172 96/84/173
f 21/23/174 99/89/175 25/90/176
f 27/29/177 94/85/178 100/91/179
f 30/28/180 95/87/181 18/18/182
f 27/29/183 102/92/184 31/33/185
f 30/28/186 103/93/187 101/94/188
f 34/32/189 105/95/190 103/93/191
f 104/96/192 31/33/193 102/92/194
f 24/22/195 104/96/196 98/88/197
f 25/90/198 105/95/199 38/36/200
f 102/92/201 96/84/202 104/96/203
f 103/93/204 97/86/205 95/87/206
f 104/96/207 96/84/207 98/88/207
f 105/95/208 99/89/208 97/86/208
f 94/85/209 102/92/209 100/91/209
f 95/87/210 101/94/210 103/93/210
f 63/65/211 108/97/212 109/98/213
f 62/62/214 111/99/215 64/100/216
f 67/79/217 111/99/218 112/101/219
f 70/80/220 108/97/221 66/66/222
f 72/71/223 110/102/224 62/62/225
f 73/73/226 109/98/227 115/103/228
f 72/71/229 112/101/230 114/104/231
f 73/73/232 113/105/233 70/80/234
f 109/98/235 113/105/236 115/103/237
f 110/102/238 112/101/239 111/99/240
f 19/16/241 53/75/242 55/82/243
f 22/19/244 54/77/245 17/20/246
f 53/75/247 91/106/248 55/82/249
f 54/77/250 92/107/251 90/108/252
f 65/63/253 64/100/253 71/67/253
f 66/66/254 65/63/254 71/67/254
f 67/79/255 71/67/256 64/100/257
f 70/80/258 71/67/259 69/109/260
f 74/76/261 89/110/261 53/75/261
f 79/70/262 40/39/263 42/69/264
f 78/42/265 39/58/266 68/68/267
f 87/74/268 41/41/269 76/78/270
f 88/38/271 42/69/272 40/39/273
f 4/5/274 84/51/275 9/10/276
f 3/3/277 82/47/278 81/46/279
f 1/1/280 78/42/281 50/72/282
f 6/4/283 79/70/284 4/5/285
f 68/68/286 50/72/286 78/42/286
f 51/81/287 116/111/288 79/70/289
f 52/64/290 1/1/291 50/72/292
f 52/64/293 6/4/294 7/7/295
f 3/3/296 80/40/296 78/42/297
f 4/5/298 86/54/298 85/52/299
f 2/2/3 1/1/300 7/7/4
f 5/6/6 8/8/301 7/7/7
f 10/9/11 9/10/302 13/13/12
f 11/11/14 14/14/303 13/13/15
f 10/9/17 14/14/304 8/8/18
f 11/11/20 2/2/305 8/8/21
f 15/15/25 16/26/306 19/16/26
f 18/18/28 21/23/307 22/19/29
f 20/17/31 19/16/308 23/21/32
f 21/23/34 25/90/309 26/24/35
f 15/15/37 27/29/310 28/25/38
f 18/18/40 17/20/311 29/27/41
f 27/29/43 31/33/312 32/30/44
f 30/28/46 29/27/313 33/31/47
f 31/33/49 35/37/314 36/34/50
f 34/32/52 33/31/315 37/35/53
f 23/21/55 36/34/316 35/37/56
f 26/24/58 25/90/317 38/36/59
f 37/35/61 33/31/318 88/38/62
f 80/40/64 43/44/319 41/41/65
f 80/40/67 81/46/320 45/43/68
f 47/45/70 45/43/321 81/46/71
f 47/45/73 82/47/322 83/48/74
f 48/50/76 49/49/323 83/48/77
f 48/50/79 84/51/324 85/52/80
f 86/54/82 44/112/325 46/53/83
f 19/16/85 55/82/326 57/55/86
f 22/19/88 26/24/327 58/56/89
f 23/21/91 57/55/328 39/58/92
f 26/24/94 37/35/329 40/39/95
f 57/55/97 55/82/330 59/59/98
f 58/56/100 60/60/331 59/59/101
f 57/55/103 60/60/332 61/61/104
f 61/61/106 60/60/333 58/56/107
f 62/62/109 64/100/334 65/63/110
f 63/65/112 52/64/335 65/63/113
f 39/58/115 61/61/336 71/67/116
f 40/39/118 69/109/337 71/67/119
f 42/69/121 44/112/338 86/54/122
f 72/71/124 62/62/339 52/64/125
f 73/73/127 51/81/340 52/64/128
f 87/74/130 32/30/341 36/34/131
f 53/75/133 16/26/342 28/25/134
f 54/77/136 75/113/343 29/27/137
f 44/112/344 42/69/344 77/114/344
f 67/79/140 72/71/345 50/72/141
f 70/80/143 69/109/346 51/81/144
f 13/13/146 83/48/347 82/47/147
f 84/51/149 83/48/348 13/13/150
f 28/25/152 32/30/349 87/74/153
f 29/27/155 75/113/350 88/38/156
f 77/114/351 88/38/351 75/113/351
f 55/82/159 91/106/352 93/83/160
f 93/83/162 92/107/353 56/57/163
f 15/15/165 20/17/354 96/84/166
f 97/86/168 21/23/355 18/18/169
f 20/17/171 24/22/356 98/88/172
f 21/23/174 97/86/357 99/89/175
f 27/29/177 15/15/358 94/85/178
f 30/28/180 101/94/359 95/87/181
f 27/29/183 100/91/360 102/92/184
f 30/28/186 34/32/361 103/93/187
f 34/32/189 38/36/362 105/95/190
f 104/96/192 35/37/363 31/33/193
f 24/22/195 35/37/364 104/96/196
f 25/90/198 99/89/365 105/95/199
f 102/92/201 94/85/366 96/84/202
f 103/93/204 105/95/367 97/86/205
f 105/115/368 106/116/368 99/117/368
f 95/118/369 107/119/369 101/120/369
f 63/65/211 66/66/370 108/97/212
f 62/62/214 110/102/371 111/99/215
f 67/79/217 64/100/372 111/99/218
f 70/80/220 113/105/373 108/97/221
f 72/71/223 114/104/374 110/102/224
f 73/73/226 63/65/375 109/98/227
f 72/71/229 67/79/376 112/101/230
f 73/73/232 115/103/377 113/105/233
f 109/98/235 108/97/378 113/105/236
f 110/102/238 114/104/379 112/101/239
f 19/16/241 16/26/380 53/75/242
f 22/19/244 56/57/381 54/77/245
f 53/75/247 89/110/382 91/106/248
f 54/77/250 56/57/383 92/107/251
f 67/79/255 68/68/384 71/67/256
f 70/80/258 66/66/385 71/67/259
f 75/113/386 54/77/386 90/108/386
f 79/70/262 69/109/387 40/39/263
f 78/42/265 41/41/388 39/58/266
f 87/74/268 39/58/389 41/41/269
f 88/38/271 77/114/390 42/69/272
f 4/5/274 85/52/391 84/51/275
f 3/3/277 12/12/392 82/47/278
f 1/1/280 3/3/393 78/42/281
f 6/4/283 51/81/394 79/70/284
f 51/81/287 69/109/395 116/111/288
f 52/64/290 7/7/396 1/1/291
f 52/64/293 51/81/397 6/4/294
f 3/3/296 81/46/398 80/40/296
f 4/5/298 79/70/399 86/54/298
